# xmcd
#
# Track frame offsets: 
#        150
#        17110
#        35585
#        54022
#        71087
#
# Disc length: 1191 seconds
#
# Revision: 0
# Processed by: cddbd v1.5.2PL0 Copyright (c) Steve Scherf et al.
# Submitted via: ExactAudioCopyFreeDBPlugin 1.0
#
DISCID=3a04a505
DTITLE=Whitehead Bros. - Feel Your Pain (Single)
DYEAR=1996
DGENRE=R&B
TTITLE0=Feel Your Pain (Radio Edit)
TTITLE1=Feel Your Pain (LP Version)
TTITLE2=Feel Your Pain (Instrumental)
TTITLE3=Feel Your Pain (A Cappella)
TTITLE4=Feel Your Pain (Dub Bass Mix)
EXTD=
EXTT0=
EXTT1=
EXTT2=
EXTT3=
EXTT4=
PLAYORDER=
